<svg id="interlocking" xmlns="http://www.w3.org/2000/svg" width="40" height="40" viewBox="0 0 40 40">
  <g id="Group_1686" data-name="Group 1686">
    <g id="Group_1685" data-name="Group 1685">
      <g id="Group_1684" data-name="Group 1684">
        <g id="Group_1683" data-name="Group 1683">
          <g id="Group_1682" data-name="Group 1682">
            <g id="Group_1681" data-name="Group 1681">
              <g id="Group_1680" data-name="Group 1680">
                <g id="Group_1679" data-name="Group 1679">
                  <g id="Group_1678" data-name="Group 1678">
                    <g id="Group_1677" data-name="Group 1677">
                      <circle id="Ellipse_195" data-name="Ellipse 195" cx="20" cy="20" r="20" fill="#4a7aff"/>
                    </g>
                  </g>
                </g>
              </g>
            </g>
          </g>
        </g>
      </g>
    </g>
  </g>
  <path id="Path_4097" data-name="Path 4097" d="M133.28,115.678a20.076,20.076,0,0,0-.449-4.232l-7.66-7.66-12.48,5.264-5.637-4.79-5.092,5.092,5.338,5.338-6.116,12.667,7.875,7.875a20.018,20.018,0,0,0,24.22-19.554Z" transform="translate(-93.28 -95.678)" fill="#0053bf"/>
  <g id="Group_1699" data-name="Group 1699" transform="translate(6.119 6.116)">
    <g id="Group_1687" data-name="Group 1687" transform="translate(4.373 4.376)">
      <path id="Path_4098" data-name="Path 4098" d="M138.439,135.007a2.428,2.428,0,0,0-3.433,3.433l2.271,2.271,3.433-3.433Z" transform="translate(-134.296 -134.297)" fill="none"/>
    </g>
    <g id="Group_1688" data-name="Group 1688" transform="translate(16.975 16.978)">
      <path id="Path_4099" data-name="Path 4099" d="M297.87,301.3a2.428,2.428,0,0,0,3.433-3.433l-2.271-2.271-3.433,3.433Z" transform="translate(-295.599 -295.598)" fill="none"/>
    </g>
    <g id="Group_1689" data-name="Group 1689" transform="translate(4.373 16.978)">
      <path id="Path_4100" data-name="Path 4100" d="M135.006,297.869a2.428,2.428,0,0,0,3.433,3.433l2.271-2.271-3.433-3.433Z" transform="translate(-134.296 -295.598)" fill="none"/>
    </g>
    <g id="Group_1690" data-name="Group 1690" transform="translate(10.444 10.451)">
      <path id="Path_4101" data-name="Path 4101" d="M0,0H4.855V4.855H0Z" transform="translate(0 3.433) rotate(-45)" fill="none"/>
    </g>
    <g id="Group_1691" data-name="Group 1691" transform="translate(16.974 4.376)">
      <path id="Path_4102" data-name="Path 4102" d="M301.3,138.44a2.428,2.428,0,0,0-3.433-3.433l-2.271,2.271,3.433,3.433Z" transform="translate(-295.597 -134.297)" fill="none"/>
    </g>
    <g id="Group_1692" data-name="Group 1692" transform="translate(0 0.003)">
      <path id="Path_4103" data-name="Path 4103" d="M95.3,85.677,92.2,82.584l-2.271-2.271a6.8,6.8,0,0,0-9.62,9.62L82.584,92.2l3.094-3.094-2.271-2.271a2.428,2.428,0,0,1,3.433-3.433l2.271,2.271L92.2,88.771,95.638,92.2l3.094-3.094Z" transform="translate(-78.324 -78.323)" fill="#fff"/>
    </g>
    <g id="Group_1693" data-name="Group 1693" transform="translate(13.881 4.264)">
      <path id="Path_4104" data-name="Path 4104" d="M259.094,135.953,256,132.859v6.187l3.433,3.433,3.094-3.094Z" transform="translate(-256 -132.859)" fill="#e9edf5"/>
    </g>
    <g id="Group_1694" data-name="Group 1694" transform="translate(0 7.357)">
      <path id="Path_4105" data-name="Path 4105" d="M86.84,187.781a2.428,2.428,0,0,1-3.433-3.433l2.271-2.271,3.094-3.094L92.2,175.55l-3.094-3.094-3.433,3.433-3.094,3.094-2.271,2.271a6.8,6.8,0,0,0,9.62,9.62L92.2,188.6l-3.094-3.094Z" transform="translate(-78.323 -172.456)" fill="#ffce00"/>
    </g>
    <g id="Group_1695" data-name="Group 1695" transform="translate(13.881 10.451)">
      <path id="Path_4106" data-name="Path 4106" d="M256,212.054h0Z" transform="translate(-256 -212.054)" fill="#ffce00"/>
    </g>
    <g id="Group_1696" data-name="Group 1696" transform="translate(13.881)">
      <path id="Path_4107" data-name="Path 4107" d="M267.892,80.275a6.8,6.8,0,0,0-9.62,0L256,82.547l3.094,3.094,2.271-2.271A2.428,2.428,0,1,1,264.8,86.8l-2.271,2.271-3.094,3.094L256,95.6l3.094,3.094,3.433-3.433,3.094-3.094,2.271-2.271a6.81,6.81,0,0,0,0-9.62Z" transform="translate(-256 -78.283)" fill="#fdba12"/>
    </g>
    <g id="Group_1697" data-name="Group 1697" transform="translate(7.354 13.884)">
      <path id="Path_4108" data-name="Path 4108" d="M190.875,258.271,188.6,256l-3.094,3.094,2.271,2.271a2.428,2.428,0,0,1-3.433,3.433l-2.271-2.271-3.094-3.094L175.55,256l-3.094,3.094,3.433,3.433,3.094,3.094,2.271,2.271a6.8,6.8,0,0,0,9.62-9.62Z" transform="translate(-172.456 -256)" fill="#fff"/>
    </g>
    <g id="Group_1698" data-name="Group 1698" transform="translate(13.881 13.884)">
      <path id="Path_4109" data-name="Path 4109" d="M267.892,258.271,265.62,256l-3.094,3.094,2.271,2.271a2.428,2.428,0,0,1-3.433,3.433l-2.271-2.271L256,259.433v6.187l2.271,2.271a6.8,6.8,0,0,0,9.62-9.62Z" transform="translate(-256 -256)" fill="#e9edf5"/>
    </g>
  </g>
</svg>
